<?xml version="1.0"?><svg xmlns="http://www.w3.org/2000/svg" width="188" height="117"><rect x="0" y="0" width="100%" height="100%" fill="rgb(108, 92, 231)" /><polyline points="15.666666666667, 0, 31.333333333333, 19.666666666667, 15.666666666667, 39.333333333333, 0, 19.666666666667" fill="#ddd" fill-opacity="0.089333333333333" stroke="#000" stroke-opacity="0.02" transform="translate(-15.666666666667, -19.666666666667)" /><polyline points="15.666666666667, 0, 31.333333333333, 19.666666666667, 15.666666666667, 39.333333333333, 0, 19.666666666667" fill="#ddd" fill-opacity="0.089333333333333" stroke="#000" stroke-opacity="0.02" transform="translate(172.33333333333, -19.666666666667)" /><polyline points="15.666666666667, 0, 31.333333333333, 19.666666666667, 15.666666666667, 39.333333333333, 0, 19.666666666667" fill="#ddd" fill-opacity="0.089333333333333" stroke="#000" stroke-opacity="0.02" transform="translate(-15.666666666667, 98.333333333333)" /><polyline points="15.666666666667, 0, 31.333333333333, 19.666666666667, 15.666666666667, 39.333333333333, 0, 19.666666666667" fill="#ddd" fill-opacity="0.089333333333333" stroke="#000" stroke-opacity="0.02" transform="translate(172.33333333333, 98.333333333333)" /><polyline points="15.666666666667, 0, 31.333333333333, 19.666666666667, 15.666666666667, 39.333333333333, 0, 19.666666666667" fill="#222" fill-opacity="0.11533333333333" stroke="#000" stroke-opacity="0.02" transform="translate(15.666666666667, -19.666666666667)" /><polyline points="15.666666666667, 0, 31.333333333333, 19.666666666667, 15.666666666667, 39.333333333333, 0, 19.666666666667" fill="#222" fill-opacity="0.11533333333333" stroke="#000" stroke-opacity="0.02" transform="translate(15.666666666667, 98.333333333333)" /><polyline points="15.666666666667, 0, 31.333333333333, 19.666666666667, 15.666666666667, 39.333333333333, 0, 19.666666666667" fill="#222" fill-opacity="0.046" stroke="#000" stroke-opacity="0.02" transform="translate(47, -19.666666666667)" /><polyline points="15.666666666667, 0, 31.333333333333, 19.666666666667, 15.666666666667, 39.333333333333, 0, 19.666666666667" fill="#222" fill-opacity="0.046" stroke="#000" stroke-opacity="0.02" transform="translate(47, 98.333333333333)" /><polyline points="15.666666666667, 0, 31.333333333333, 19.666666666667, 15.666666666667, 39.333333333333, 0, 19.666666666667" fill="#222" fill-opacity="0.13266666666667" stroke="#000" stroke-opacity="0.02" transform="translate(78.333333333333, -19.666666666667)" /><polyline points="15.666666666667, 0, 31.333333333333, 19.666666666667, 15.666666666667, 39.333333333333, 0, 19.666666666667" fill="#222" fill-opacity="0.13266666666667" stroke="#000" stroke-opacity="0.02" transform="translate(78.333333333333, 98.333333333333)" /><polyline points="15.666666666667, 0, 31.333333333333, 19.666666666667, 15.666666666667, 39.333333333333, 0, 19.666666666667" fill="#222" fill-opacity="0.046" stroke="#000" stroke-opacity="0.02" transform="translate(109.66666666667, -19.666666666667)" /><polyline points="15.666666666667, 0, 31.333333333333, 19.666666666667, 15.666666666667, 39.333333333333, 0, 19.666666666667" fill="#222" fill-opacity="0.046" stroke="#000" stroke-opacity="0.02" transform="translate(109.66666666667, 98.333333333333)" /><polyline points="15.666666666667, 0, 31.333333333333, 19.666666666667, 15.666666666667, 39.333333333333, 0, 19.666666666667" fill="#222" fill-opacity="0.098" stroke="#000" stroke-opacity="0.02" transform="translate(141, -19.666666666667)" /><polyline points="15.666666666667, 0, 31.333333333333, 19.666666666667, 15.666666666667, 39.333333333333, 0, 19.666666666667" fill="#222" fill-opacity="0.098" stroke="#000" stroke-opacity="0.02" transform="translate(141, 98.333333333333)" /><polyline points="15.666666666667, 0, 31.333333333333, 19.666666666667, 15.666666666667, 39.333333333333, 0, 19.666666666667" fill="#222" fill-opacity="0.098" stroke="#000" stroke-opacity="0.02" transform="translate(0, 0)" /><polyline points="15.666666666667, 0, 31.333333333333, 19.666666666667, 15.666666666667, 39.333333333333, 0, 19.666666666667" fill="#222" fill-opacity="0.098" stroke="#000" stroke-opacity="0.02" transform="translate(188, 0)" /><polyline points="15.666666666667, 0, 31.333333333333, 19.666666666667, 15.666666666667, 39.333333333333, 0, 19.666666666667" fill="#222" fill-opacity="0.080666666666667" stroke="#000" stroke-opacity="0.02" transform="translate(31.333333333333, 0)" /><polyline points="15.666666666667, 0, 31.333333333333, 19.666666666667, 15.666666666667, 39.333333333333, 0, 19.666666666667" fill="#ddd" fill-opacity="0.054666666666667" stroke="#000" stroke-opacity="0.02" transform="translate(62.666666666667, 0)" /><polyline points="15.666666666667, 0, 31.333333333333, 19.666666666667, 15.666666666667, 39.333333333333, 0, 19.666666666667" fill="#222" fill-opacity="0.13266666666667" stroke="#000" stroke-opacity="0.02" transform="translate(94, 0)" /><polyline points="15.666666666667, 0, 31.333333333333, 19.666666666667, 15.666666666667, 39.333333333333, 0, 19.666666666667" fill="#ddd" fill-opacity="0.14133333333333" stroke="#000" stroke-opacity="0.02" transform="translate(125.33333333333, 0)" /><polyline points="15.666666666667, 0, 31.333333333333, 19.666666666667, 15.666666666667, 39.333333333333, 0, 19.666666666667" fill="#ddd" fill-opacity="0.14133333333333" stroke="#000" stroke-opacity="0.02" transform="translate(156.66666666667, 0)" /><polyline points="15.666666666667, 0, 31.333333333333, 19.666666666667, 15.666666666667, 39.333333333333, 0, 19.666666666667" fill="#222" fill-opacity="0.13266666666667" stroke="#000" stroke-opacity="0.02" transform="translate(-15.666666666667, 19.666666666667)" /><polyline points="15.666666666667, 0, 31.333333333333, 19.666666666667, 15.666666666667, 39.333333333333, 0, 19.666666666667" fill="#222" fill-opacity="0.13266666666667" stroke="#000" stroke-opacity="0.02" transform="translate(172.33333333333, 19.666666666667)" /><polyline points="15.666666666667, 0, 31.333333333333, 19.666666666667, 15.666666666667, 39.333333333333, 0, 19.666666666667" fill="#222" fill-opacity="0.046" stroke="#000" stroke-opacity="0.02" transform="translate(15.666666666667, 19.666666666667)" /><polyline points="15.666666666667, 0, 31.333333333333, 19.666666666667, 15.666666666667, 39.333333333333, 0, 19.666666666667" fill="#ddd" fill-opacity="0.124" stroke="#000" stroke-opacity="0.02" transform="translate(47, 19.666666666667)" /><polyline points="15.666666666667, 0, 31.333333333333, 19.666666666667, 15.666666666667, 39.333333333333, 0, 19.666666666667" fill="#ddd" fill-opacity="0.02" stroke="#000" stroke-opacity="0.02" transform="translate(78.333333333333, 19.666666666667)" /><polyline points="15.666666666667, 0, 31.333333333333, 19.666666666667, 15.666666666667, 39.333333333333, 0, 19.666666666667" fill="#ddd" fill-opacity="0.072" stroke="#000" stroke-opacity="0.02" transform="translate(109.66666666667, 19.666666666667)" /><polyline points="15.666666666667, 0, 31.333333333333, 19.666666666667, 15.666666666667, 39.333333333333, 0, 19.666666666667" fill="#ddd" fill-opacity="0.14133333333333" stroke="#000" stroke-opacity="0.02" transform="translate(141, 19.666666666667)" /><polyline points="15.666666666667, 0, 31.333333333333, 19.666666666667, 15.666666666667, 39.333333333333, 0, 19.666666666667" fill="#222" fill-opacity="0.15" stroke="#000" stroke-opacity="0.02" transform="translate(0, 39.333333333333)" /><polyline points="15.666666666667, 0, 31.333333333333, 19.666666666667, 15.666666666667, 39.333333333333, 0, 19.666666666667" fill="#222" fill-opacity="0.15" stroke="#000" stroke-opacity="0.02" transform="translate(188, 39.333333333333)" /><polyline points="15.666666666667, 0, 31.333333333333, 19.666666666667, 15.666666666667, 39.333333333333, 0, 19.666666666667" fill="#222" fill-opacity="0.028666666666667" stroke="#000" stroke-opacity="0.02" transform="translate(31.333333333333, 39.333333333333)" /><polyline points="15.666666666667, 0, 31.333333333333, 19.666666666667, 15.666666666667, 39.333333333333, 0, 19.666666666667" fill="#222" fill-opacity="0.11533333333333" stroke="#000" stroke-opacity="0.02" transform="translate(62.666666666667, 39.333333333333)" /><polyline points="15.666666666667, 0, 31.333333333333, 19.666666666667, 15.666666666667, 39.333333333333, 0, 19.666666666667" fill="#ddd" fill-opacity="0.14133333333333" stroke="#000" stroke-opacity="0.02" transform="translate(94, 39.333333333333)" /><polyline points="15.666666666667, 0, 31.333333333333, 19.666666666667, 15.666666666667, 39.333333333333, 0, 19.666666666667" fill="#222" fill-opacity="0.028666666666667" stroke="#000" stroke-opacity="0.02" transform="translate(125.33333333333, 39.333333333333)" /><polyline points="15.666666666667, 0, 31.333333333333, 19.666666666667, 15.666666666667, 39.333333333333, 0, 19.666666666667" fill="#222" fill-opacity="0.098" stroke="#000" stroke-opacity="0.02" transform="translate(156.66666666667, 39.333333333333)" /><polyline points="15.666666666667, 0, 31.333333333333, 19.666666666667, 15.666666666667, 39.333333333333, 0, 19.666666666667" fill="#ddd" fill-opacity="0.124" stroke="#000" stroke-opacity="0.02" transform="translate(-15.666666666667, 59)" /><polyline points="15.666666666667, 0, 31.333333333333, 19.666666666667, 15.666666666667, 39.333333333333, 0, 19.666666666667" fill="#ddd" fill-opacity="0.124" stroke="#000" stroke-opacity="0.02" transform="translate(172.33333333333, 59)" /><polyline points="15.666666666667, 0, 31.333333333333, 19.666666666667, 15.666666666667, 39.333333333333, 0, 19.666666666667" fill="#ddd" fill-opacity="0.072" stroke="#000" stroke-opacity="0.02" transform="translate(15.666666666667, 59)" /><polyline points="15.666666666667, 0, 31.333333333333, 19.666666666667, 15.666666666667, 39.333333333333, 0, 19.666666666667" fill="#222" fill-opacity="0.13266666666667" stroke="#000" stroke-opacity="0.02" transform="translate(47, 59)" /><polyline points="15.666666666667, 0, 31.333333333333, 19.666666666667, 15.666666666667, 39.333333333333, 0, 19.666666666667" fill="#ddd" fill-opacity="0.037333333333333" stroke="#000" stroke-opacity="0.02" transform="translate(78.333333333333, 59)" /><polyline points="15.666666666667, 0, 31.333333333333, 19.666666666667, 15.666666666667, 39.333333333333, 0, 19.666666666667" fill="#222" fill-opacity="0.13266666666667" stroke="#000" stroke-opacity="0.02" transform="translate(109.66666666667, 59)" /><polyline points="15.666666666667, 0, 31.333333333333, 19.666666666667, 15.666666666667, 39.333333333333, 0, 19.666666666667" fill="#ddd" fill-opacity="0.14133333333333" stroke="#000" stroke-opacity="0.02" transform="translate(141, 59)" /><polyline points="15.666666666667, 0, 31.333333333333, 19.666666666667, 15.666666666667, 39.333333333333, 0, 19.666666666667" fill="#222" fill-opacity="0.028666666666667" stroke="#000" stroke-opacity="0.02" transform="translate(0, 78.666666666667)" /><polyline points="15.666666666667, 0, 31.333333333333, 19.666666666667, 15.666666666667, 39.333333333333, 0, 19.666666666667" fill="#222" fill-opacity="0.028666666666667" stroke="#000" stroke-opacity="0.02" transform="translate(188, 78.666666666667)" /><polyline points="15.666666666667, 0, 31.333333333333, 19.666666666667, 15.666666666667, 39.333333333333, 0, 19.666666666667" fill="#222" fill-opacity="0.15" stroke="#000" stroke-opacity="0.02" transform="translate(31.333333333333, 78.666666666667)" /><polyline points="15.666666666667, 0, 31.333333333333, 19.666666666667, 15.666666666667, 39.333333333333, 0, 19.666666666667" fill="#222" fill-opacity="0.080666666666667" stroke="#000" stroke-opacity="0.02" transform="translate(62.666666666667, 78.666666666667)" /><polyline points="15.666666666667, 0, 31.333333333333, 19.666666666667, 15.666666666667, 39.333333333333, 0, 19.666666666667" fill="#222" fill-opacity="0.15" stroke="#000" stroke-opacity="0.02" transform="translate(94, 78.666666666667)" /><polyline points="15.666666666667, 0, 31.333333333333, 19.666666666667, 15.666666666667, 39.333333333333, 0, 19.666666666667" fill="#ddd" fill-opacity="0.14133333333333" stroke="#000" stroke-opacity="0.02" transform="translate(125.33333333333, 78.666666666667)" /><polyline points="15.666666666667, 0, 31.333333333333, 19.666666666667, 15.666666666667, 39.333333333333, 0, 19.666666666667" fill="#ddd" fill-opacity="0.072" stroke="#000" stroke-opacity="0.02" transform="translate(156.66666666667, 78.666666666667)" /></svg>